<svg width="31" height="26" viewBox="0 0 31 26" fill="none" xmlns="http://www.w3.org/2000/svg">
<path d="M20.1051 11.7947C19.7088 11.7951 19.3212 11.6785 18.9909 11.4596C18.6606 11.2407 18.4022 10.9292 18.2482 10.5641C18.221 10.4997 18.2068 10.4306 18.2063 10.3608C18.2058 10.2909 18.219 10.2217 18.2453 10.1569C18.2716 10.0922 18.3103 10.0333 18.3594 9.98354C18.4084 9.93379 18.4668 9.89419 18.5311 9.86699C18.5954 9.8398 18.6645 9.82554 18.7344 9.82504C18.8042 9.82454 18.8735 9.8378 18.9382 9.86407C19.0029 9.89033 19.0619 9.92909 19.1116 9.97813C19.1614 10.0272 19.201 10.0855 19.2282 10.1499C19.2951 10.3085 19.4038 10.4459 19.5427 10.5476C19.6816 10.6493 19.8454 10.7115 20.0168 10.7275C20.1882 10.7435 20.3607 10.7127 20.516 10.6384C20.6713 10.5642 20.8035 10.4492 20.8987 10.3057C20.9938 10.1623 21.0482 9.9957 21.0562 9.82376C21.0642 9.65181 21.0254 9.48091 20.944 9.32925C20.8626 9.17759 20.7416 9.05085 20.5939 8.9625C20.4461 8.87415 20.2772 8.82751 20.1051 8.82754C19.7468 8.82774 19.3949 8.73239 19.0857 8.55133C18.7765 8.37027 18.5212 8.11004 18.346 7.79746C18.1709 7.48488 18.0822 7.13125 18.0893 6.77301C18.0963 6.41477 18.1987 6.06488 18.3859 5.7594C18.5732 5.45391 18.8385 5.20387 19.1545 5.03505C19.4706 4.86623 19.8259 4.78473 20.1839 4.79895C20.542 4.81317 20.8897 4.9226 21.1914 5.11595C21.493 5.30931 21.7377 5.5796 21.9001 5.89898C21.9318 5.96123 21.9509 6.02911 21.9564 6.09875C21.9618 6.16839 21.9535 6.23842 21.9319 6.30485C21.9103 6.37127 21.8758 6.43279 21.8304 6.4859C21.7851 6.539 21.7297 6.58264 21.6674 6.61433C21.6052 6.64602 21.5373 6.66514 21.4676 6.6706C21.398 6.67606 21.328 6.66775 21.2615 6.64614C21.1951 6.62453 21.1336 6.59006 21.0805 6.54467C21.0274 6.49929 20.9838 6.44389 20.9521 6.38164C20.8755 6.23082 20.76 6.10315 20.6177 6.01178C20.4753 5.92042 20.3111 5.86867 20.1421 5.86186C19.9731 5.85505 19.8053 5.89343 19.6561 5.97304C19.5068 6.05266 19.3815 6.17063 19.293 6.3148C19.2045 6.45897 19.1561 6.62413 19.1527 6.79325C19.1492 6.96238 19.191 7.12936 19.2736 7.27698C19.3562 7.42461 19.4766 7.54754 19.6226 7.63311C19.7685 7.71868 19.9346 7.7638 20.1037 7.76382C20.6319 7.77341 21.1352 7.98996 21.5054 8.36688C21.8755 8.7438 22.0829 9.25096 22.0829 9.77923C22.0829 10.3075 21.8755 10.8147 21.5054 11.1916C21.1352 11.5685 20.6319 11.7851 20.1037 11.7947H20.1051Z" fill="#22A37C"/>
<path d="M20.1051 5.86117C19.964 5.86117 19.8288 5.80513 19.729 5.70539C19.6293 5.60564 19.5732 5.47036 19.5732 5.32931V4.22437C19.5732 4.08331 19.6293 3.94803 19.729 3.84828C19.8288 3.74854 19.964 3.6925 20.1051 3.6925C20.2462 3.6925 20.3814 3.74854 20.4812 3.84828C20.5809 3.94803 20.637 4.08331 20.637 4.22437V5.32931C20.637 5.47036 20.5809 5.60564 20.4812 5.70539C20.3814 5.80513 20.2462 5.86117 20.1051 5.86117ZM20.1051 12.8997C19.964 12.8997 19.8288 12.8436 19.729 12.7439C19.6293 12.6442 19.5732 12.5089 19.5732 12.3678V11.2629C19.5732 11.1218 19.6293 10.9865 19.729 10.8868C19.8288 10.787 19.964 10.731 20.1051 10.731C20.2462 10.731 20.3814 10.787 20.4812 10.8868C20.5809 10.9865 20.637 11.1218 20.637 11.2629V12.3678C20.637 12.5089 20.5809 12.6442 20.4812 12.7439C20.3814 12.8436 20.2462 12.8997 20.1051 12.8997Z" fill="#22A37C"/>
<path d="M20.1049 14.9C18.354 14.8981 16.6754 14.2018 15.4372 12.9638C14.1991 11.7258 13.5026 10.0472 13.5005 8.29633C13.5005 8.12281 13.5071 7.94929 13.5204 7.77976C13.5334 7.64071 13.6005 7.51234 13.7073 7.42235C13.8141 7.33237 13.952 7.288 14.0912 7.29883C14.2305 7.30965 14.3598 7.3748 14.4514 7.48021C14.543 7.58561 14.5895 7.72282 14.5808 7.8622C14.5696 8.00663 14.564 8.15145 14.5642 8.29633C14.5653 9.05342 14.7215 9.80226 15.0232 10.4966C15.3249 11.191 15.7657 11.8162 16.3184 12.3336C16.8711 12.851 17.524 13.2496 18.2368 13.5049C18.9496 13.7601 19.7071 13.8666 20.4626 13.8177C21.2181 13.7688 21.9556 13.5656 22.6295 13.2206C23.3034 12.8757 23.8995 12.3962 24.381 11.8119C24.8624 11.2276 25.219 10.5509 25.4287 9.82341C25.6384 9.09595 25.6968 8.33322 25.6003 7.5823C25.6003 7.5823 25.6003 7.57765 25.6003 7.57499C25.5397 7.1126 25.4206 6.65978 25.246 6.22739C25.246 6.22141 25.2406 6.21609 25.2387 6.21077C24.8717 5.30611 24.2721 4.51456 23.5006 3.91636C22.7291 3.31816 21.8132 2.93458 20.8457 2.80451C19.8781 2.67444 18.8934 2.8025 17.9913 3.17571C17.0892 3.54893 16.3019 4.15402 15.709 4.92965C15.6671 4.98657 15.6142 5.03455 15.5535 5.07078C15.4927 5.10702 15.4254 5.13078 15.3554 5.14068C15.2854 5.15058 15.2141 5.14642 15.1457 5.12844C15.0773 5.11046 15.0132 5.07903 14.9571 5.03597C14.901 4.99292 14.8541 4.93911 14.819 4.8777C14.784 4.81628 14.7615 4.74849 14.753 4.6783C14.7444 4.6081 14.75 4.53691 14.7693 4.46888C14.7886 4.40085 14.8212 4.33736 14.8654 4.28211C15.5712 3.35926 16.5082 2.63909 17.5815 2.19435C18.6549 1.74962 19.8266 1.59609 20.9783 1.74927C22.13 1.90246 23.2208 2.35694 24.1406 3.06677C25.0604 3.77661 25.7765 4.71666 26.2166 5.79193C26.2194 5.79751 26.2219 5.80329 26.2239 5.80921C26.4379 6.33367 26.5832 6.88362 26.6561 7.44535V7.45532C26.6913 7.73427 26.7091 8.01516 26.7092 8.29633C26.7071 10.0472 26.0106 11.7258 24.7725 12.9638C23.5344 14.2018 21.8557 14.8981 20.1049 14.9Z" fill="#22A37C"/>
<path d="M4.68238 3.15325C4.61254 3.15504 4.54302 3.14305 4.47781 3.11798C4.4126 3.0929 4.35296 3.05523 4.30231 3.00711C4.25166 2.95899 4.21098 2.90136 4.18259 2.83751C4.15421 2.77367 4.13868 2.70486 4.13689 2.63502C4.1351 2.56517 4.14709 2.49566 4.17216 2.43045C4.19724 2.36523 4.23491 2.3056 4.28303 2.25494C4.33116 2.20429 4.38878 2.16361 4.45263 2.13523C4.51647 2.10685 4.58528 2.09132 4.65512 2.08953C5.55064 2.04299 6.67819 1.92864 6.93747 1.8236C8.97516 1.01849 14.0418 -0.660857 17.0122 1.17938C17.0495 1.20066 17.2735 1.32099 18.6032 2.00709C18.7285 2.07189 18.823 2.18383 18.8659 2.3183C18.9087 2.45277 18.8963 2.59874 18.8315 2.7241C18.7667 2.84947 18.6548 2.94396 18.5203 2.98679C18.3859 3.02961 18.2399 3.01727 18.1145 2.95247C16.5542 2.14604 16.4877 2.10681 16.4584 2.08753C13.8284 0.450732 8.80563 2.22981 7.32972 2.81552C6.77459 3.03557 5.05003 3.1353 4.71031 3.15258L4.68238 3.15325ZM5.76804 9.73702H4.68238C4.54132 9.73702 4.40604 9.68098 4.3063 9.58124C4.20656 9.4815 4.15052 9.34622 4.15052 9.20516C4.15052 9.0641 4.20656 8.92882 4.3063 8.82907C4.40604 8.72933 4.54132 8.6733 4.68238 8.6733H5.76804C6.73796 8.66913 7.69412 8.44356 8.56363 8.01379C9.49439 7.55639 12.1989 7.31905 12.5652 7.31306L15.785 7.25655C15.9163 7.25456 16.0459 7.22666 16.1664 7.17445C16.2869 7.12223 16.3959 7.04673 16.4871 6.95228C16.5784 6.85783 16.65 6.74629 16.6981 6.62406C16.7461 6.50184 16.7695 6.37133 16.7669 6.24003V6.10707C16.7649 5.97576 16.737 5.84614 16.6848 5.72565C16.6326 5.60516 16.5571 5.49616 16.4626 5.40493C16.3682 5.31369 16.2567 5.242 16.1344 5.19399C16.0122 5.14597 15.8817 5.12257 15.7504 5.12512L11.6006 5.19759H11.5913C11.4502 5.19882 11.3144 5.14397 11.2138 5.0451C11.1132 4.94623 11.056 4.81144 11.0547 4.67038C11.0535 4.52932 11.1084 4.39355 11.2072 4.29294C11.3061 4.19232 11.4409 4.1351 11.5819 4.13387L15.7318 4.0614H15.7684C16.3088 4.06252 16.8272 4.27539 17.2125 4.65434C17.5978 5.03328 17.8192 5.54813 17.8293 6.08845V6.22142C17.8384 6.76831 17.6301 7.29645 17.2502 7.68995C16.8703 8.08344 16.3498 8.31013 15.8029 8.32027L12.5832 8.37612C12.0739 8.38543 9.67389 8.65269 9.03234 8.96848C8.01683 9.46954 6.90043 9.73239 5.76804 9.73702Z" fill="#22A37C"/>
<path d="M4.68237 11.8266H0.531861C0.390802 11.8266 0.255522 11.7705 0.155778 11.6708C0.0560351 11.5711 0 11.4358 0 11.2947V0.531861C0 0.390802 0.0560351 0.255522 0.155778 0.155778C0.255522 0.0560353 0.390802 0 0.531861 0H4.68237C4.82343 0 4.95871 0.0560353 5.05845 0.155778C5.15819 0.255522 5.21423 0.390802 5.21423 0.531861V11.2947C5.21423 11.4358 5.15819 11.5711 5.05845 11.6708C4.95871 11.7705 4.82343 11.8266 4.68237 11.8266ZM1.06372 10.7629H4.15051V1.06372H1.06372V10.7629Z" fill="#22A37C"/>
<path d="M2.60754 10.1147C2.46649 10.1147 2.33121 10.0587 2.23146 9.95893C2.13172 9.85919 2.07568 9.72391 2.07568 9.58285V7.15491C2.07568 7.01385 2.13172 6.87857 2.23146 6.77882C2.33121 6.67908 2.46649 6.62305 2.60754 6.62305C2.7486 6.62305 2.88388 6.67908 2.98363 6.77882C3.08337 6.87857 3.1394 7.01385 3.1394 7.15491V9.58285C3.1394 9.72391 3.08337 9.85919 2.98363 9.95893C2.88388 10.0587 2.7486 10.1147 2.60754 10.1147ZM17.3973 25.6504C16.148 25.6504 14.9441 25.4256 13.9668 24.8187C13.6975 24.6638 9.11885 22.3129 6.09854 20.7665C5.6066 20.5042 5.2373 20.0592 5.07011 19.5273C4.90292 18.9954 4.95121 18.4192 5.20458 17.9226C5.45796 17.4259 5.89616 17.0486 6.42491 16.8718C6.95366 16.6949 7.5307 16.7327 8.03186 16.977L14.0725 20.0545C14.1982 20.1185 14.2933 20.2299 14.337 20.364C14.3806 20.4982 14.3692 20.6442 14.3052 20.7699C14.2411 20.8956 14.1298 20.9907 13.9957 21.0344C13.8615 21.078 13.7155 21.0666 13.5898 21.0026L7.54919 17.9198C7.42448 17.8562 7.28847 17.8179 7.14894 17.807C7.00941 17.796 6.86909 17.8126 6.73599 17.8559C6.60289 17.8992 6.47962 17.9683 6.37321 18.0592C6.2668 18.1501 6.17934 18.2611 6.11583 18.3858C6.05231 18.5105 6.01399 18.6465 6.00303 18.7861C5.99208 18.9256 6.00872 19.0659 6.05199 19.199C6.09527 19.3321 6.16434 19.4554 6.25525 19.5618C6.34617 19.6682 6.45716 19.7557 6.58187 19.8192C7.86765 20.4773 14.2885 23.7662 14.5245 23.9132C17.1546 25.5493 22.1754 23.7689 23.6519 23.1819C24.2064 22.9618 25.931 22.8627 26.2707 22.8448C26.3405 22.8412 26.4104 22.8513 26.4763 22.8747C26.5422 22.8981 26.6029 22.9342 26.6549 22.9811C26.7068 23.0279 26.749 23.0845 26.7791 23.1476C26.8092 23.2108 26.8265 23.2792 26.8301 23.3491C26.8338 23.4189 26.8236 23.4888 26.8002 23.5547C26.7768 23.6206 26.7407 23.6813 26.6939 23.7332C26.647 23.7852 26.5904 23.8274 26.5273 23.8575C26.4642 23.8875 26.3957 23.9049 26.3259 23.9085C25.4303 23.9551 24.3028 24.0694 24.0435 24.1744C22.674 24.7156 19.9449 25.6504 17.3973 25.6504Z" fill="#22A37C"/>
<path d="M15.2151 21.9346C14.6746 21.9335 14.1562 21.7206 13.7709 21.3417C13.3856 20.9627 13.1642 20.4479 13.1541 19.9076V19.7746C13.145 19.2277 13.3533 18.6996 13.7332 18.3061C14.1131 17.9126 14.6336 17.6859 15.1805 17.6757L18.4002 17.6199C18.9095 17.6106 21.3095 17.3433 21.9511 17.0275C22.9669 16.5271 24.0836 16.2649 25.216 16.261H26.3017C26.4427 16.261 26.578 16.317 26.6778 16.4168C26.7775 16.5165 26.8335 16.6518 26.8335 16.7928C26.8335 16.9339 26.7775 17.0692 26.6778 17.1689C26.578 17.2687 26.4427 17.3247 26.3017 17.3247H25.2127C24.2426 17.3295 23.2865 17.5557 22.4171 17.9862C21.4864 18.4436 18.7818 18.681 18.4155 18.6869L15.1958 18.7434C15.0645 18.7454 14.9348 18.7733 14.8144 18.8256C14.6939 18.8778 14.5849 18.9533 14.4936 19.0477C14.4024 19.1422 14.3307 19.2537 14.2827 19.3759C14.2347 19.4982 14.2113 19.6287 14.2138 19.76V19.8929C14.2191 20.1577 14.3289 20.4097 14.5194 20.5937C14.7099 20.7777 14.9655 20.8788 15.2303 20.8749L19.3802 20.8024C19.45 20.8012 19.5194 20.8137 19.5844 20.8393C19.6494 20.8649 19.7087 20.9031 19.759 20.9516C19.8092 21.0001 19.8494 21.0581 19.8773 21.1221C19.9052 21.1862 19.9201 21.2551 19.9214 21.325C19.9226 21.3948 19.91 21.4642 19.8844 21.5292C19.8588 21.5942 19.8207 21.6535 19.7722 21.7038C19.7236 21.754 19.6657 21.7942 19.6016 21.8221C19.5376 21.8499 19.4686 21.8649 19.3988 21.8661L15.249 21.9386L15.2151 21.9346Z" fill="#22A37C"/>
<path d="M30.449 26H26.2985C26.1574 26 26.0221 25.944 25.9224 25.8443C25.8226 25.7445 25.7666 25.6092 25.7666 25.4682V14.7053C25.7666 14.5643 25.8226 14.429 25.9224 14.3292C26.0221 14.2295 26.1574 14.1735 26.2985 14.1735H30.449C30.59 14.1735 30.7253 14.2295 30.8251 14.3292C30.9248 14.429 30.9808 14.5643 30.9808 14.7053V25.4682C30.9808 25.6092 30.9248 25.7445 30.8251 25.8443C30.7253 25.944 30.59 26 30.449 26ZM26.8303 24.9363H29.9171V15.2372H26.8303V24.9363Z" fill="#22A37C"/>
<path d="M28.3732 19.377C28.2321 19.377 28.0968 19.321 27.9971 19.2213C27.8973 19.1215 27.8413 18.9862 27.8413 18.8452V16.4172C27.8413 16.2762 27.8973 16.1409 27.9971 16.0412C28.0968 15.9414 28.2321 15.8854 28.3732 15.8854C28.5142 15.8854 28.6495 15.9414 28.7493 16.0412C28.849 16.1409 28.905 16.2762 28.905 16.4172V18.8452C28.905 18.9862 28.849 19.1215 28.7493 19.2213C28.6495 19.321 28.5142 19.377 28.3732 19.377Z" fill="#22A37C"/>
</svg>
