<svg width="19" height="15" viewBox="0 0 19 15" fill="none" xmlns="http://www.w3.org/2000/svg">
<path fill-rule="evenodd" clip-rule="evenodd" d="M18.7834 1.98152L18.0312 1.22739L11.0558 8.20279C10.1844 9.07383 8.71855 9.07383 7.84474 8.20279L0.871714 1.26781L0.117188 2.01996L5.30971 7.21208L0.117188 12.4042L0.871714 13.1564L6.06146 7.96423L7.09299 8.99536C7.72784 9.63021 8.55845 9.98607 9.42988 9.98607C10.3037 9.98607 11.1343 9.63021 11.7695 8.99536L12.7983 7.96423L17.9908 13.1564L18.7426 12.4042L13.5528 7.21208L18.7834 1.98152Z" />
<path fill-rule="evenodd" clip-rule="evenodd" d="M1.62358 1.06957C1.30615 1.06957 1.06997 1.30814 1.06997 1.62358V12.8004C1.06997 13.1158 1.30615 13.3544 1.62358 13.3544H17.2768C17.5947 13.3544 17.8328 13.1158 17.8328 12.8004V1.62358C17.8328 1.30814 17.5947 1.06957 17.2768 1.06957H1.62358ZM17.3176 14.5028H1.6644C0.752149 14.5028 0 13.7507 0 12.8388V1.664C0 0.752149 0.752149 0 1.6644 0H17.3176C18.2291 0 18.9816 0.752149 18.9816 1.664V12.8388C18.9816 13.7507 18.2291 14.5028 17.3176 14.5028Z" />
</svg>
