<svg width="15" height="20" viewBox="0 0 15 20" fill="none" xmlns="http://www.w3.org/2000/svg">
<path fill-rule="evenodd" clip-rule="evenodd" d="M13.0219 8.44857H11.7974V5.83755C11.7974 3.30694 9.71451 1.22449 7.18472 1.22449C4.65452 1.22449 2.57166 3.30694 2.57166 5.83755V8.44857H1.34717V5.83755C1.34717 2.61143 3.96105 0 7.18472 0C10.4084 0 13.0219 2.61143 13.0219 5.83755V8.44857Z" fill="#7A7A7A"/>
<path fill-rule="evenodd" clip-rule="evenodd" d="M1.95959 9.10265C1.59347 9.10265 1.30776 9.38796 1.30776 9.75449V17.5924C1.30776 17.9594 1.59347 18.2447 1.95959 18.2447H12.4098C12.7759 18.2447 13.0612 17.9594 13.0612 17.5924V9.75449C13.0612 9.38796 12.7759 9.10265 12.4098 9.10265H1.95959ZM12.4098 19.5504H1.95959C0.899592 19.5504 0 18.6529 0 17.5924V9.75449C0 8.69449 0.899592 7.79694 1.95959 7.79694H12.4098C13.4694 7.79694 14.369 8.69449 14.369 9.75449V17.5924C14.369 18.6945 13.4694 19.5504 12.4098 19.5504Z" fill="#7A7A7A"/>
<path fill-rule="evenodd" clip-rule="evenodd" d="M8.49041 11.7141C8.49041 12.4492 7.92021 13.0198 7.1847 13.0198C6.4496 13.0198 5.87939 12.4492 5.87939 11.7141C5.87939 10.979 6.4496 10.4084 7.1847 10.4084C7.92021 10.4084 8.49041 11.0206 8.49041 11.7141Z" fill="#7A7A7A"/>
<path fill-rule="evenodd" clip-rule="evenodd" d="M7.51177 11.7141H6.85748L6.20605 15.6333H8.16361L7.51177 11.7141Z" fill="#7A7A7A"/>
</svg>
